<?xml version="1.0" encoding="utf-8"?>
<!-- Generator: Adobe Illustrator 16.0.0, SVG Export Plug-In . SVG Version: 6.00 Build 0)  -->
<!DOCTYPE svg PUBLIC "-//W3C//DTD SVG 1.1//EN" "http://www.w3.org/Graphics/SVG/1.1/DTD/svg11.dtd">
<svg version="1.1" id="Capa_1" xmlns="http://www.w3.org/2000/svg" xmlns:xlink="http://www.w3.org/1999/xlink" x="0px" y="0px"
	 width="78.369px" height="78.369px" viewBox="0 0 78.369 78.369" enable-background="new 0 0 78.369 78.369" xml:space="preserve">
<g>
	<g>
		<path fill="#CC1139" d="M76.375,23.51L54.86,1.865c-0.111-0.112-0.262-0.173-0.416-0.173L23.992,1.667
			c-0.153,0-0.302,0.061-0.411,0.168L2.029,23.444c-0.11,0.108-0.173,0.258-0.173,0.413l-0.028,30.58
			c0,0.156,0.061,0.306,0.169,0.414l21.517,21.644c0.109,0.106,0.256,0.178,0.411,0.178l30.452,0.031h0.002
			c0.154,0,0.304-0.065,0.411-0.177L76.347,54.92c0.11-0.106,0.17-0.258,0.17-0.414l0.024-30.582
			C76.543,23.768,76.481,23.618,76.375,23.51z M40.786,58.433c-0.436,0.435-1.037,0.68-1.65,0.68c-0.616,0-1.22-0.248-1.654-0.684
			s-0.67-1.041-0.669-1.664c0-0.615,0.262-1.219,0.692-1.652c0.44-0.434,1.089-0.686,1.67-0.688
			c0.605,0.007,1.189,0.257,1.627,0.693c0.436,0.434,0.674,1.036,0.674,1.653C41.474,57.394,41.224,57.995,40.786,58.433z
			 M41.479,47.394c-0.002,1.291-1.047,2.342-2.335,2.342c-1.29,0-2.337-1.055-2.335-2.348l0.032-25.797
			c0.001-1.295,1.178-2.347,2.345-2.347v-0.001c0.62,0.003,1.2,0.248,1.638,0.69c0.44,0.444,0.68,1.033,0.68,1.659L41.479,47.394z"
			/>
	</g>
</g>
</svg>
