<?xml version="1.0" encoding="utf-8"?>
<!-- Generator: Adobe Illustrator 16.0.0, SVG Export Plug-In . SVG Version: 6.00 Build 0)  -->
<!DOCTYPE svg PUBLIC "-//W3C//DTD SVG 1.1//EN" "http://www.w3.org/Graphics/SVG/1.1/DTD/svg11.dtd">
<svg version="1.1" id="Capa_1" xmlns="http://www.w3.org/2000/svg" xmlns:xlink="http://www.w3.org/1999/xlink" x="0px" y="0px"
	 width="78.369px" height="78.369px" viewBox="0 0 78.369 78.369" enable-background="new 0 0 78.369 78.369" xml:space="preserve">
<g>
	<path fill="#D38C0D" d="M76.52,56.904L49.38,6.832c-4.434-8.271-15.644-8.271-20.06,0L2.165,56.904
		c-4.432,8.271,1.084,18.549,10.029,18.549h54.201C75.339,75.453,80.952,65.075,76.52,56.904z M39.333,64.344
		c-2.359,0-4.321-2.089-4.321-4.603s1.962-4.604,4.321-4.604c2.361,0,4.321,2.09,4.228,4.722
		C43.672,62.255,41.599,64.344,39.333,64.344z M43.272,34.586c-0.191,3.566-0.399,7.116-0.591,10.684
		c-0.094,1.154-0.094,2.208-0.094,3.345c-0.097,1.885-1.484,3.348-3.253,3.348c-1.77,0-3.142-1.359-3.253-3.247
		c-0.287-5.555-0.59-11.004-0.876-16.559c-0.096-1.46-0.192-2.938-0.304-4.4c0-2.411,1.275-4.399,3.349-5.027
		c2.07-0.526,4.129,0.526,5.023,2.616c0.303,0.729,0.398,1.461,0.398,2.31C43.575,29.983,43.367,32.293,43.272,34.586z"/>
</g>
</svg>
